<svg width="375" height="812" viewBox="0 0 375 812" fill="none" xmlns="http://www.w3.org/2000/svg">
  <!-- Background -->
  <rect width="375" height="812" fill="#F8F9FA"/>
  
  <!-- Header -->
  <rect width="375" height="88" fill="#1A73E8"/>
  
  <!-- Status Bar -->
  <rect y="0" width="375" height="44" fill="#1A73E8"/>
  <text x="20" y="30" fill="white" font-family="system-ui" font-size="14" font-weight="600">9:41</text>
  <text x="320" y="30" fill="white" font-family="system-ui" font-size="14">100%</text>
  
  <!-- App Header -->
  <rect y="44" width="375" height="44" fill="#1A73E8"/>
  <text x="20" y="72" fill="white" font-family="system-ui" font-size="18" font-weight="700">CAMPUSCON.</text>
  
  <!-- Profile Icon -->
  <circle cx="335" cy="66" r="16" fill="white" opacity="0.2"/>
  <circle cx="335" cy="66" r="12" fill="#FF4D4F"/>
  
  <!-- Notification Icon -->
  <rect x="295" y="58" width="16" height="16" rx="2" fill="white" opacity="0.8"/>
  
  <!-- Search Bar -->
  <rect x="20" y="108" width="335" height="40" rx="20" fill="white"/>
  <text x="40" y="132" fill="#6B7280" font-family="system-ui" font-size="14">Search events</text>
  <rect x="315" y="118" width="20" height="20" rx="10" fill="#1A73E8"/>
  
  <!-- Search Suggestion -->
  <rect x="20" y="158" width="200" height="24" rx="12" fill="#FBBC05"/>
  <text x="30" y="174" fill="white" font-family="system-ui" font-size="12" font-weight="600">Or join search by event type or location</text>
  
  <!-- Create Deed Button -->
  <rect x="275" y="108" width="80" height="32" rx="16" fill="#1A73E8"/>
  <text x="295" y="128" fill="white" font-family="system-ui" font-size="12" font-weight="600">Create Deed</text>
  
  <!-- Main Content Area -->
  <rect x="20" y="200" width="335" height="200" rx="12" fill="#E3F2FD"/>
  
  <!-- Illustration Area -->
  <rect x="40" y="220" width="295" height="120" rx="8" fill="#1976D2"/>
  
  <!-- Characters -->
  <ellipse cx="120" cy="280" rx="25" ry="35" fill="#4CAF50"/>
  <circle cx="120" cy="260" r="15" fill="#FFE0B2"/>
  <rect x="110" y="250" width="20" height="8" rx="4" fill="#8D6E63"/>
  
  <ellipse cx="220" cy="285" rx="25" ry="35" fill="#2196F3"/>
  <circle cx="220" cy="265" r="15" fill="#FFE0B2"/>
  <rect x="210" y="255" width="20" height="8" rx="4" fill="#FF5722"/>
  
  <!-- Arms -->
  <ellipse cx="95" cy="270" rx="8" ry="20" fill="#FFE0B2" transform="rotate(-30 95 270)"/>
  <ellipse cx="145" cy="270" rx="8" ry="20" fill="#FFE0B2" transform="rotate(30 145 270)"/>
  <ellipse cx="195" cy="275" rx="8" ry="20" fill="#FFE0B2" transform="rotate(-30 195 275)"/>
  <ellipse cx="245" cy="275" rx="8" ry="20" fill="#FFE0B2" transform="rotate(30 245 275)"/>
  
  <!-- Event Card -->
  <rect x="20" y="420" width="335" height="100" rx="12" fill="white"/>
  <rect x="30" y="430" width="315" height="60" rx="8" fill="#F3F4F6"/>
  <text x="40" y="450" fill="#1F2937" font-family="system-ui" font-size="16" font-weight="600">Title of the deed</text>
  <text x="40" y="470" fill="#FBBC05" font-family="system-ui" font-size="14">Friday, April 18th  ||  12:30pm</text>
  
  <!-- Second Event Card -->
  <rect x="20" y="540" width="335" height="100" rx="12" fill="white"/>
  <rect x="30" y="550" width="315" height="60" rx="8" fill="#8B4513"/>
  <text x="40" y="570" fill="#1F2937" font-family="system-ui" font-size="16" font-weight="600">Title of the deed</text>
  <text x="40" y="590" fill="#FBBC05" font-family="system-ui" font-size="14">Friday, April 18th  ||  12:30pm</text>
  
  <!-- Bottom Section -->
  <rect x="20" y="660" width="335" height="100" rx="12" fill="#E5E7EB"/>
  
  <!-- Job Banner -->
  <rect x="140" y="720" width="95" height="30" rx="4" fill="#1A73E8"/>
  <text x="160" y="740" fill="white" font-family="system-ui" font-size="12" font-weight="600">Job Banner</text>
</svg>